# xmcd CD database file
#
# Track frame offsets:
#	150
#	13896
#	19929
#	24444
#	28263
#	33830
#	46859
#	59937
#	66771
#	86524
#
# Disc length: 1193 seconds
#
# Revision: 0
# Processed by: cddbd v1.5.1PL2 Copyright (c) Steve Scherf et al.
# Submitted via: CDex 1.70beta2
#
DISCID=8104a70a
DTITLE=Leadbelly - various hits
DYEAR=1900
DGENRE=Blues
TTITLE0=Alabama Bound
TTITLE1=Big Fat Woman
TTITLE2=Black Betty
TTITLE3=Bring Me Lil Water Silvy
TTITLE4=Burrow Love and Go
TTITLE5=De Kalb Woman Blues
TTITLE6=Good Morning Blues
TTITLE7=Green Corn
TTITLE8=John Hardy
TTITLE9=Julie Ann Johnson
EXTD=
EXTT0=
EXTT1=
EXTT2=
EXTT3=
EXTT4=
EXTT5=
EXTT6=
EXTT7=
EXTT8=
EXTT9=
PLAYORDER=
